<svg width="438" height="254" viewBox="0 0 438 254" fill="none" xmlns="http://www.w3.org/2000/svg">
<g clip-path="url(#clip0_123_474)">
<path d="M225.053 215.716C223.917 215.716 222.77 215.698 221.644 215.663L221.669 214.844C223.286 214.894 224.936 214.908 226.561 214.886L226.572 215.706C226.066 215.713 225.56 215.716 225.053 215.716ZM231.497 215.526L231.449 214.707C233.069 214.612 234.709 214.477 236.324 214.308L236.41 215.123C234.782 215.294 233.129 215.43 231.497 215.526ZM216.723 215.398C215.09 215.273 213.44 215.109 211.818 214.909L211.918 214.095C213.527 214.293 215.165 214.456 216.785 214.58L216.723 215.398ZM241.298 214.496L241.175 213.686C242.784 213.441 244.405 213.157 245.993 212.841L246.152 213.645C244.552 213.964 242.919 214.25 241.298 214.496ZM206.942 214.196C205.328 213.922 203.7 213.608 202.102 213.26L202.276 212.458C203.862 212.803 205.477 213.116 207.078 213.387L206.942 214.196ZM250.963 212.572L250.767 211.775C252.346 211.384 253.934 210.952 255.487 210.49L255.72 211.277C254.155 211.742 252.555 212.178 250.963 212.572ZM197.311 212.101C195.729 211.68 194.137 211.216 192.578 210.722L192.825 209.94C194.371 210.43 195.951 210.89 197.521 211.308L197.311 212.101ZM260.411 209.763L260.143 208.989C261.675 208.455 263.217 207.878 264.725 207.273L265.028 208.035C263.509 208.644 261.956 209.225 260.411 209.763ZM187.902 209.121C186.365 208.555 184.819 207.944 183.306 207.306L183.624 206.55C185.125 207.183 186.659 207.789 188.185 208.351L187.902 209.121ZM269.551 206.099L269.212 205.353C270.684 204.683 272.163 203.967 273.609 203.227L273.982 203.957C272.525 204.703 271.034 205.424 269.551 206.099ZM178.8 205.281C177.323 204.576 175.84 203.826 174.394 203.051L174.78 202.328C176.215 203.097 177.687 203.841 179.153 204.541L178.8 205.281ZM278.31 201.613L277.904 200.901C279.316 200.094 280.725 199.246 282.092 198.38L282.529 199.072C281.152 199.946 279.732 200.801 278.31 201.613ZM170.095 200.622C168.69 199.784 167.283 198.901 165.914 197.997L166.364 197.312C167.723 198.209 169.119 199.086 170.514 199.917L170.095 200.622ZM286.629 196.34L286.16 195.668C287.489 194.738 288.815 193.764 290.102 192.773L290.601 193.423C289.305 194.422 287.968 195.403 286.629 196.34ZM161.857 195.185C160.536 194.224 159.216 193.216 157.934 192.191L158.445 191.55C159.717 192.568 161.027 193.567 162.338 194.521L161.857 195.185ZM294.437 190.327L293.91 189.7C295.148 188.653 296.381 187.561 297.574 186.456L298.13 187.058C296.928 188.172 295.686 189.272 294.437 190.327ZM154.152 189.021C152.921 187.941 151.699 186.818 150.518 185.683L151.085 185.091C152.257 186.218 153.47 187.332 154.691 188.404L154.152 189.021ZM301.671 183.623L301.088 183.047C302.23 181.888 303.36 180.688 304.445 179.481L305.054 180.03C303.96 181.246 302.822 182.455 301.671 183.623ZM147.041 182.183C145.912 180.994 144.797 179.764 143.727 178.529L144.345 177.992C145.407 179.218 146.513 180.437 147.634 181.618L147.041 182.183ZM308.269 176.286L307.637 175.765C308.669 174.507 309.684 173.209 310.657 171.907L311.312 172.398C310.333 173.71 309.309 175.019 308.269 176.286ZM140.583 174.729C139.569 173.445 138.571 172.12 137.615 170.79L138.28 170.311C139.228 171.631 140.218 172.946 141.225 174.22L140.583 174.729ZM314.175 168.373L313.498 167.913C314.411 166.566 315.305 165.18 316.156 163.792L316.853 164.221C315.996 165.62 315.095 167.016 314.175 168.373ZM134.831 166.721C133.939 165.351 133.066 163.941 132.236 162.53L132.941 162.113C133.765 163.514 134.632 164.913 135.517 166.272L134.831 166.721ZM319.339 159.95L318.623 159.553C319.409 158.128 320.172 156.665 320.893 155.203L321.627 155.567C320.901 157.039 320.131 158.514 319.339 159.95ZM129.836 158.225C129.072 156.779 128.332 155.296 127.635 153.817L128.376 153.467C129.067 154.935 129.802 156.407 130.559 157.842L129.836 158.225ZM323.711 151.083L322.961 150.754C323.613 149.261 324.24 147.732 324.823 146.21L325.587 146.504C324.999 148.038 324.368 149.579 323.711 151.083ZM125.64 149.313C125.012 147.804 124.411 146.26 123.854 144.724L124.623 144.443C125.176 145.968 125.773 147.5 126.395 148.997L125.64 149.313ZM327.251 141.843L326.474 141.585C326.985 140.042 327.467 138.466 327.906 136.899L328.695 137.121C328.251 138.7 327.765 140.289 327.251 141.843ZM122.277 140.045C121.79 138.482 121.332 136.885 120.916 135.298L121.708 135.09C122.121 136.665 122.575 138.25 123.058 139.801L122.277 140.045ZM329.919 132.337L329.121 132.151C329.488 130.571 329.823 128.956 330.118 127.354L330.923 127.502C330.626 129.117 330.288 130.744 329.919 132.337ZM119.776 130.494C119.435 128.892 119.126 127.26 118.858 125.643L119.666 125.508C119.932 127.114 120.238 128.733 120.577 130.323L119.776 130.494ZM331.703 122.627L330.891 122.515C331.112 120.909 331.298 119.271 331.444 117.647L332.26 117.72C332.112 119.358 331.924 121.008 331.703 122.627V122.627ZM118.163 120.754C117.97 119.13 117.811 117.477 117.692 115.839L118.508 115.779C118.627 117.405 118.784 119.046 118.976 120.657L118.163 120.754ZM332.593 112.794L331.775 112.757C331.848 111.132 331.885 109.484 331.885 107.858H332.704C332.704 109.496 332.667 111.157 332.593 112.794L332.593 112.794ZM117.444 110.907C117.416 109.901 117.402 108.875 117.401 107.858C117.401 107.227 117.407 106.597 117.418 105.968L118.236 105.983C118.225 106.607 118.22 107.232 118.22 107.858C118.22 108.868 118.234 109.886 118.262 110.885L117.444 110.907ZM331.879 106.714C331.862 105.088 331.808 103.439 331.718 101.815L332.535 101.769C332.626 103.406 332.681 105.067 332.698 106.705L331.879 106.714ZM118.43 101.086L117.613 101.035C117.716 99.3959 117.857 97.7406 118.032 96.1148L118.846 96.2031C118.672 97.8167 118.532 99.4594 118.43 101.086ZM331.335 96.9296C331.172 95.3126 330.968 93.6766 330.731 92.0666L331.541 91.9469C331.78 93.5691 331.985 95.2175 332.15 96.8467L331.335 96.9296ZM119.484 91.3447L118.675 91.2194C118.925 89.5968 119.217 87.9613 119.541 86.358L120.343 86.5206C120.022 88.1117 119.732 89.7347 119.484 91.3447ZM329.905 87.2373C329.592 85.6373 329.24 84.0267 328.857 82.4503L329.653 82.2565C330.038 83.8448 330.393 85.4679 330.708 87.0799L329.905 87.2373ZM121.423 81.7413L120.629 81.5418C121.026 79.9533 121.466 78.3515 121.937 76.7807L122.721 77.0166C122.254 78.5753 121.817 80.1649 121.423 81.7413ZM327.591 77.7167C327.134 76.1549 326.636 74.584 326.108 73.0469L326.882 72.7802C327.414 74.3291 327.917 75.9124 328.377 77.486L327.591 77.7167ZM124.241 72.3442L123.468 72.0723C124.012 70.5218 124.6 68.9639 125.214 67.4418L125.973 67.7494C125.364 69.2596 124.781 70.8057 124.241 72.3442ZM324.412 68.4504C323.815 66.9409 323.175 65.4261 322.511 63.9476L323.257 63.6108C323.927 65.1007 324.571 66.6272 325.173 68.148L324.412 68.4504ZM127.915 63.241L127.171 62.8985C127.855 61.4067 128.583 59.9107 129.334 58.452L130.062 58.8281C129.316 60.2757 128.594 61.7604 127.915 63.241ZM320.405 59.5354C319.673 58.0874 318.896 56.6364 318.098 55.2233L318.811 54.8192C319.615 56.2433 320.397 57.7053 321.135 59.1645L320.405 59.5354ZM132.408 54.52L131.699 54.1107C132.515 52.6899 133.376 51.2678 134.258 49.8841L134.948 50.3254C134.073 51.6987 133.218 53.1101 132.408 54.52ZM315.596 51.0197C314.731 49.64 313.825 48.2655 312.904 46.9342L313.576 46.4669C314.505 47.8083 315.418 49.1932 316.289 50.5835L315.596 51.0197ZM137.677 46.2528L137.008 45.7802C137.952 44.4392 138.939 43.1025 139.942 41.8073L140.588 42.3099C139.593 43.5955 138.614 44.9219 137.677 46.2528ZM310.027 42.9752C309.041 41.6805 308.014 40.3936 306.973 39.15L307.601 38.6232C308.649 39.8763 309.684 41.1729 310.678 42.4774L310.027 42.9752ZM143.675 38.5054L143.052 37.9735C144.111 36.7272 145.215 35.4867 146.333 34.2864L146.931 34.8459C145.822 36.0372 144.727 37.2685 143.675 38.5054ZM303.748 35.4673C302.648 34.268 301.508 33.0793 300.358 31.9347L300.935 31.3528C302.094 32.5064 303.243 33.7039 304.351 34.9122L303.748 35.4673ZM150.349 31.3399L149.777 30.7536C150.947 29.6062 152.159 28.4718 153.377 27.382L153.922 27.994C152.713 29.0753 151.511 30.2011 150.349 31.34V31.3399ZM296.811 28.5595C295.606 27.4643 294.362 26.3842 293.113 25.3491L293.635 24.7172C294.893 25.7601 296.147 26.8484 297.361 27.952L296.811 28.5595ZM157.642 24.8145L157.126 24.1785C158.392 23.1454 159.7 22.1265 161.015 21.1501L161.503 21.8089C160.198 22.7782 158.899 23.7892 157.642 24.8145V24.8145ZM289.272 22.31C287.972 21.329 286.634 20.3664 285.296 19.449L285.758 18.7722C287.107 19.6963 288.454 20.6661 289.765 21.6548L289.272 22.31ZM165.494 18.9839L165.037 18.3034C166.392 17.3899 167.787 16.4954 169.184 15.6441L169.609 16.345C168.223 17.1897 166.839 18.0776 165.494 18.9839V18.9839ZM281.192 16.7729C279.809 15.9151 278.388 15.0788 276.97 14.287L277.368 13.5706C278.797 14.3684 280.229 15.2112 281.623 16.0753L281.192 16.7729ZM173.839 13.898L173.446 13.1783C174.88 12.3923 176.35 11.6298 177.815 10.9115L178.175 11.6484C176.721 12.3611 175.262 13.1178 173.839 13.898ZM272.637 11.9976C271.18 11.2705 269.688 10.5681 268.202 9.90986L268.533 9.15973C270.031 9.82295 271.534 10.5308 273.002 11.2635L272.637 11.9976ZM182.608 9.60087L182.282 8.84833C183.78 8.19773 185.313 7.57376 186.837 6.99364L187.128 7.76059C185.615 8.33611 184.094 8.95528 182.608 9.60087H182.608ZM263.674 8.02833C262.158 7.43942 260.607 6.87751 259.063 6.35847L259.324 5.58071C260.879 6.10395 262.443 6.67005 263.97 7.26379L263.674 8.02833ZM191.739 6.12678L191.484 5.34742C193.04 4.83639 194.627 4.35519 196.202 3.91765L196.42 4.70783C194.858 5.14217 193.283 5.61956 191.739 6.12678ZM254.391 4.90727C252.83 4.46132 251.237 4.046 249.658 3.67295L249.846 2.87476C251.437 3.25062 253.042 3.66914 254.616 4.1183L254.391 4.90727ZM201.162 3.50653L200.98 2.70695C202.575 2.34189 204.2 2.00928 205.809 1.71852L205.954 2.52552C204.357 2.81427 202.745 3.14429 201.162 3.50653ZM244.873 2.65889C243.279 2.3591 241.655 2.09239 240.046 1.86611L240.16 1.05391C241.781 1.28199 243.417 1.55072 245.024 1.85269L244.873 2.65889ZM210.786 1.76638L210.678 0.953379C212.299 0.736711 213.947 0.554486 215.576 0.41231L215.647 1.22932C214.03 1.3707 212.395 1.55133 210.786 1.76639V1.76638ZM235.188 1.2958C233.576 1.14362 231.935 1.02627 230.31 0.947571L230.35 0.128177C231.987 0.207676 233.64 0.325821 235.265 0.47923L235.188 1.2958ZM220.529 0.914731L220.494 0.0953178C221.999 0.0324402 223.532 0.000401905 225.053 0L225.423 0.000607L225.421 0.820821L225.053 0.820214C223.544 0.82062 222.022 0.852458 220.529 0.914737V0.914731Z" fill="#3F3D56"/>
<path d="M329.912 197.372C328.94 197.372 327.991 197.083 327.183 196.542C326.375 196.002 325.746 195.233 325.374 194.334C325.002 193.435 324.905 192.445 325.094 191.49C325.284 190.536 325.752 189.659 326.439 188.971C327.126 188.282 328.001 187.814 328.954 187.624C329.906 187.434 330.894 187.531 331.791 187.904C332.689 188.276 333.456 188.907 333.996 189.716C334.536 190.526 334.824 191.477 334.824 192.451C334.822 193.755 334.304 195.006 333.383 195.929C332.463 196.851 331.214 197.37 329.912 197.372ZM329.912 188.35C329.102 188.35 328.311 188.59 327.638 189.041C326.965 189.491 326.44 190.132 326.13 190.881C325.82 191.631 325.739 192.455 325.897 193.251C326.055 194.046 326.445 194.777 327.018 195.35C327.59 195.924 328.319 196.315 329.113 196.473C329.907 196.631 330.73 196.55 331.478 196.239C332.226 195.929 332.865 195.403 333.315 194.729C333.765 194.055 334.005 193.262 334.005 192.451C334.004 191.363 333.572 190.321 332.805 189.552C332.037 188.783 330.997 188.351 329.912 188.35Z" fill="#2F2E41"/>
<path d="M199.258 71.1157V98.0515C199.258 98.3004 199.159 98.5389 198.983 98.7148C198.807 98.8908 198.569 98.99 198.321 98.9906H197.654V239.309C197.654 243.192 196.114 246.916 193.374 249.661C190.633 252.407 186.917 253.949 183.041 253.95H95.5326C93.6139 253.949 91.714 253.571 89.9414 252.835C88.1688 252.099 86.5583 251.02 85.2017 249.661C83.8452 248.301 82.7692 246.687 82.0352 244.911C81.3012 243.135 80.9236 241.231 80.924 239.309V103.912H80.4409C80.2657 103.912 80.0975 103.843 79.9732 103.719C79.8489 103.595 79.7787 103.427 79.7778 103.252V87.9219C79.7778 87.8346 79.795 87.7482 79.8283 87.6676C79.8616 87.587 79.9104 87.5137 79.972 87.452C80.0336 87.3904 80.1067 87.3414 80.1872 87.308C80.2676 87.2746 80.3539 87.2575 80.4409 87.2575H80.924V81.4832H80.4368C80.2529 81.4825 80.0767 81.4087 79.9471 81.2779C79.8174 81.1472 79.7447 80.9703 79.7451 80.786V65.6654C79.7456 65.4817 79.8186 65.3057 79.9482 65.1758C80.0779 65.0459 80.2535 64.9728 80.4368 64.9723H80.924V57.09H80.4287C80.348 57.0901 80.2681 57.0743 80.1936 57.0434C80.119 57.0125 80.0513 56.9672 79.9943 56.9101C79.9372 56.8529 79.892 56.7851 79.8612 56.7104C79.8304 56.6357 79.8146 56.5557 79.8147 56.4749V48.2235C79.8143 48.0599 79.8787 47.9028 79.9938 47.7867C80.109 47.6706 80.2653 47.605 80.4287 47.6042H80.924V30.8965C80.9241 27.0146 82.4633 23.2918 85.2029 20.5469C87.9425 17.802 91.6582 16.2599 95.5326 16.2598H183.041C186.916 16.2597 190.632 17.8017 193.372 20.5465C196.113 23.2913 197.653 27.0142 197.654 30.8965V70.1765H198.321C198.569 70.1772 198.807 70.2763 198.983 70.4523C199.159 70.6283 199.258 70.8668 199.258 71.1157Z" fill="#3F3D56"/>
<path d="M143.503 23.7676H129.284C128.709 23.7676 128.243 24.2343 128.243 24.81V26.0414C128.243 26.6171 128.709 27.0839 129.284 27.0839H143.503C144.078 27.0839 144.544 26.6171 144.544 26.0414V24.81C144.544 24.2343 144.078 23.7676 143.503 23.7676Z" fill="#E6E8EC"/>
<path d="M148.885 27.307C149.922 27.307 150.763 26.4648 150.763 25.4259C150.763 24.3871 149.922 23.5449 148.885 23.5449C147.848 23.5449 147.008 24.3871 147.008 25.4259C147.008 26.4648 147.848 27.307 148.885 27.307Z" fill="#E6E8EC"/>
<path d="M190.656 33.7928V240.524C190.655 242.987 189.678 245.348 187.939 247.089C186.201 248.83 183.843 249.808 181.385 249.808H97.6178C96.4 249.811 95.1938 249.572 94.0683 249.106C92.9428 248.64 91.9201 247.957 91.0588 247.094C90.1976 246.231 89.5147 245.207 89.0493 244.08C88.5839 242.952 88.3451 241.744 88.3467 240.524V33.7928C88.3466 32.573 88.5864 31.3651 89.0523 30.2381C89.5182 29.111 90.2011 28.087 91.062 27.2245C91.9229 26.3619 92.945 25.6777 94.0698 25.2109C95.1947 24.7441 96.4003 24.5039 97.6178 24.5039H110.155V26.1156C110.155 28.1441 110.96 30.0895 112.391 31.5239C113.823 32.9583 115.764 33.7641 117.789 33.7641H160.391C162.416 33.7641 164.357 32.9583 165.789 31.5239C167.221 30.0895 168.025 28.1441 168.025 26.1156V24.5039H181.385C182.603 24.5035 183.808 24.7435 184.933 25.2102C186.058 25.6768 187.081 26.3611 187.942 27.2237C188.803 28.0863 189.486 29.1105 189.951 30.2376C190.417 31.3648 190.657 32.5729 190.656 33.7928Z" fill="#23F6F0"/>
<path opacity="0.2" d="M187.398 92.2734H92.4355V138.616H187.398V92.2734Z" fill="black"/>
<path d="M336.391 39.3711H241.429V85.7132H336.391V39.3711Z" fill="#F2F2F2"/>
<path d="M187.398 162.518H92.4355V208.86H187.398V162.518Z" fill="#3F3D56"/>
<path d="M177.574 57.9394C182.095 57.9394 185.76 54.2672 185.76 49.7373C185.76 45.2074 182.095 41.5352 177.574 41.5352C173.053 41.5352 169.388 45.2074 169.388 49.7373C169.388 54.2672 173.053 57.9394 177.574 57.9394Z" fill="white"/>
<path d="M181.258 49.4741H177.837V46.0469H177.311V49.4741H173.891V50.0015H177.311V53.4288H177.837V50.0015H181.258V49.4741Z" fill="#3F3D56"/>
<path d="M325.748 33.2188H230.786V79.5608H325.748V33.2188Z" fill="#3F3D56"/>
<path d="M273.178 64.3326C275.664 73.5395 284.179 79.2416 284.179 79.2416C284.179 79.2416 288.663 70.0163 286.177 60.8094C283.691 51.6025 275.177 45.9004 275.177 45.9004C275.177 45.9004 270.693 55.1257 273.178 64.3326Z" fill="white"/>
<path d="M276.831 62.355C283.652 69.008 284.485 79.2352 284.485 79.2352C284.485 79.2352 274.259 78.6757 267.438 72.0227C260.616 65.3698 259.783 55.1426 259.783 55.1426C259.783 55.1426 270.01 55.702 276.831 62.355Z" fill="#23F6F0"/>
<path d="M130.67 194.337C133.156 203.543 141.67 209.246 141.67 209.246C141.67 209.246 146.154 200.02 143.669 190.813C141.183 181.606 132.668 175.904 132.668 175.904C132.668 175.904 128.184 185.13 130.67 194.337Z" fill="white"/>
<path d="M134.323 192.359C141.144 199.012 141.977 209.239 141.977 209.239C141.977 209.239 131.751 208.68 124.93 202.027C118.109 195.374 117.275 185.146 117.275 185.146C117.275 185.146 127.502 185.706 134.323 192.359Z" fill="#23F6F0"/>
<path d="M153.285 194.337C150.799 203.543 142.284 209.246 142.284 209.246C142.284 209.246 137.8 200.02 140.286 190.813C142.772 181.606 151.286 175.904 151.286 175.904C151.286 175.904 155.771 185.13 153.285 194.337Z" fill="white"/>
<path d="M149.631 192.359C142.81 199.012 141.977 209.239 141.977 209.239C141.977 209.239 152.203 208.68 159.024 202.027C165.845 195.374 166.679 185.146 166.679 185.146C166.679 185.146 156.452 185.706 149.631 192.359Z" fill="#23F6F0"/>
<path d="M252.071 138.026H243.99V129.93H252.071V138.026ZM244.612 137.403H251.449V130.552H244.612V137.403Z" fill="#3F3D56"/>
<path d="M39.8973 188.093L34.3857 182.173L40.2948 176.65L45.8063 182.571L39.8973 188.093ZM35.2642 182.203L39.9278 187.213L44.9278 182.54L40.2642 177.531L35.2642 182.203Z" fill="#2F2E41"/>
<path d="M44.2631 60.71C46.5415 60.71 48.3885 58.8594 48.3885 56.5767C48.3885 54.2939 46.5415 52.4434 44.2631 52.4434C41.9847 52.4434 40.1377 54.2939 40.1377 56.5767C40.1377 58.8594 41.9847 60.71 44.2631 60.71Z" fill="#3F3D56"/>
<path d="M44.2625 68.5181C41.9054 68.5181 39.6012 67.8178 37.6413 66.5057C35.6815 65.1937 34.1539 63.3288 33.2519 61.1469C32.3499 58.965 32.1139 56.5642 32.5737 54.2479C33.0336 51.9316 34.1686 49.804 35.8354 48.1341C37.5021 46.4641 39.6256 45.3269 41.9375 44.8662C44.2493 44.4054 46.6455 44.6419 48.8232 45.5457C51.0009 46.4494 52.8622 47.9799 54.1718 49.9435C55.4813 51.9072 56.1803 54.2158 56.1803 56.5774C56.1767 59.7432 54.92 62.7783 52.6857 65.0168C50.4515 67.2554 47.4222 68.5146 44.2625 68.5181ZM44.2625 45.5552C42.0867 45.5552 39.9598 46.2017 38.1507 47.4128C36.3416 48.624 34.9315 50.3454 34.0989 52.3594C33.2663 54.3735 33.0484 56.5896 33.4729 58.7277C33.8973 60.8658 34.9451 62.8298 36.4836 64.3713C38.0221 65.9127 39.9823 66.9625 42.1163 67.3878C44.2503 67.8131 46.4622 67.5948 48.4724 66.7606C50.4826 65.9263 52.2007 64.5136 53.4095 62.701C54.6183 60.8884 55.2635 58.7574 55.2635 56.5774C55.2602 53.6552 54.1001 50.8536 52.0377 48.7873C49.9753 46.7209 47.1791 45.5586 44.2625 45.5552Z" fill="#2F2E41"/>
<path d="M207.864 84.8926H112.901V131.235H207.864V84.8926Z" fill="#3F3D56"/>
<path d="M160.853 100.781H160.034V131.298H160.853V100.781Z" fill="white"/>
<path d="M160.443 105.506C162.822 105.506 164.75 103.574 164.75 101.19C164.75 98.8071 162.822 96.875 160.443 96.875C158.064 96.875 156.136 98.8071 156.136 101.19C156.136 103.574 158.064 105.506 160.443 105.506Z" fill="#23F6F0"/>
<path d="M160.443 119.589C160.443 119.589 159.828 106.329 147.214 107.871L160.443 119.589Z" fill="white"/>
<path d="M292.268 210.957L239.592 227.469L174.064 186.04L174.062 186.037L173.847 185.904L173.811 185.881L173.29 185.554L167.052 181.62C167.064 181.514 167.078 181.411 167.099 181.311C167.194 180.825 167.416 180.372 167.74 179.999C167.853 179.865 167.977 179.74 168.111 179.627H168.114C168.173 179.577 168.235 179.527 168.3 179.48C168.364 179.43 168.432 179.382 168.503 179.338C169.709 178.527 171.528 178.182 173.423 178.079C177.516 177.884 181.588 178.769 185.232 180.644C192.598 184.377 208.43 191.722 210.899 187.222C214.136 181.325 177.352 115.575 177.352 115.575C174.323 107.776 176.539 105.229 177.928 104.427C177.97 104.403 178.011 104.38 178.049 104.359C178.196 104.283 178.349 104.218 178.505 104.165C178.587 104.135 178.67 104.11 178.755 104.091C178.777 104.085 178.8 104.08 178.823 104.076L183.702 110.575L183.776 110.672L184.038 111.023L184.117 111.129L213.695 150.514C259.014 126.042 274.611 191.498 274.611 191.498L292.268 210.957Z" fill="#FBBEBE"/>
<path d="M184.118 111.128C184.01 111.35 183.841 111.536 183.631 111.664C183.421 111.792 183.178 111.857 182.932 111.85C182.769 111.85 182.607 111.828 182.449 111.785C181.354 111.49 180.086 110.287 179.139 108.645C178.214 107.041 177.835 105.428 178.05 104.358C178.197 104.282 178.349 104.217 178.506 104.164C178.588 104.134 178.671 104.109 178.756 104.09C178.376 104.836 178.603 106.531 179.651 108.35C180.507 109.839 181.666 110.966 182.599 111.213C182.713 111.261 182.836 111.282 182.96 111.274C183.083 111.266 183.202 111.229 183.309 111.167C183.416 111.105 183.507 111.02 183.575 110.917C183.644 110.814 183.687 110.696 183.703 110.573L183.776 110.671L184.038 111.022L184.118 111.128Z" fill="#3F3D56"/>
<path d="M173.847 185.903L173.812 185.88L173.291 185.552C173.294 184.712 172.659 183.335 171.255 181.952C170.069 180.794 168.692 180.033 167.741 179.997C167.854 179.863 167.978 179.739 168.112 179.626H168.115C168.174 179.576 168.236 179.526 168.3 179.479C169.582 179.857 170.742 180.565 171.667 181.531C173.209 183.049 174.056 184.78 173.847 185.903Z" fill="#3F3D56"/>
<path d="M58.558 103.755C60.5403 103.755 62.1473 102.145 62.1473 100.159C62.1473 98.1726 60.5403 96.5625 58.558 96.5625C56.5757 96.5625 54.9688 98.1726 54.9688 100.159C54.9688 102.145 56.5757 103.755 58.558 103.755Z" fill="#23F6F0"/>
<path d="M51.5791 130.925C52.6804 130.925 53.5732 130.031 53.5732 128.928C53.5732 127.824 52.6804 126.93 51.5791 126.93C50.4778 126.93 49.585 127.824 49.585 128.928C49.585 130.031 50.4778 130.925 51.5791 130.925Z" fill="#23F6F0"/>
<path d="M215.755 39.6814C216.856 39.6814 217.749 38.7869 217.749 37.6835C217.749 36.5801 216.856 35.6855 215.755 35.6855C214.654 35.6855 213.761 36.5801 213.761 37.6835C213.761 38.7869 214.654 39.6814 215.755 39.6814Z" fill="#3F3D56"/>
<path d="M37.6211 129.927C38.7224 129.927 39.6153 129.033 39.6153 127.93C39.6153 126.826 38.7224 125.932 37.6211 125.932C36.5198 125.932 35.627 126.826 35.627 127.93C35.627 129.033 36.5198 129.927 37.6211 129.927Z" fill="#3F3D56"/>
<path d="M289.104 129.947C290.206 129.947 291.099 129.053 291.099 127.949C291.099 126.846 290.206 125.951 289.104 125.951C288.003 125.951 287.11 126.846 287.11 127.949C287.11 129.053 288.003 129.947 289.104 129.947Z" fill="#3F3D56"/>
</g>
<defs>
<clipPath id="clip0_123_474">
<rect width="438" height="254" fill="white"/>
</clipPath>
</defs>
</svg>
