<svg width="234" height="136" viewBox="0 0 234 136" fill="none" xmlns="http://www.w3.org/2000/svg">
<g clip-path="url(#clip0_123_326)">
<path d="M120.234 115.502C119.627 115.502 119.014 115.492 118.413 115.473L118.426 115.034C119.29 115.061 120.172 115.069 121.04 115.057L121.046 115.496C120.776 115.5 120.505 115.502 120.234 115.502ZM123.677 115.4L123.651 114.961C124.517 114.91 125.393 114.838 126.256 114.747L126.301 115.184C125.432 115.276 124.549 115.348 123.677 115.4ZM115.784 115.331C114.911 115.264 114.03 115.176 113.163 115.07L113.217 114.634C114.077 114.74 114.951 114.827 115.817 114.893L115.784 115.331ZM128.913 114.848L128.847 114.414C129.707 114.283 130.573 114.131 131.421 113.962L131.506 114.393C130.652 114.563 129.779 114.717 128.913 114.848ZM110.558 114.688C109.696 114.541 108.827 114.373 107.973 114.186L108.066 113.757C108.913 113.942 109.776 114.109 110.631 114.255L110.558 114.688ZM134.077 113.818L133.972 113.392C134.815 113.182 135.664 112.95 136.493 112.703L136.618 113.125C135.782 113.374 134.927 113.607 134.077 113.818ZM105.413 113.566C104.568 113.34 103.717 113.092 102.885 112.828L103.017 112.409C103.843 112.671 104.687 112.918 105.526 113.142L105.413 113.566ZM139.124 112.314L138.981 111.899C139.799 111.614 140.623 111.305 141.429 110.981L141.591 111.389C140.779 111.715 139.949 112.026 139.124 112.314ZM100.386 111.97C99.5654 111.667 98.7393 111.34 97.9312 110.998L98.101 110.594C98.9029 110.933 99.7226 111.257 100.537 111.558L100.386 111.97ZM144.007 110.352L143.826 109.953C144.612 109.594 145.403 109.211 146.175 108.814L146.374 109.206C145.596 109.605 144.799 109.991 144.007 110.352ZM95.5239 109.914C94.7347 109.537 93.9426 109.135 93.1697 108.72L93.3758 108.333C94.1429 108.745 94.9289 109.143 95.7121 109.518L95.5239 109.914ZM148.686 107.95L148.47 107.569C149.224 107.137 149.977 106.683 150.707 106.219L150.941 106.59C150.205 107.057 149.447 107.515 148.686 107.95ZM90.8733 107.419C90.1226 106.971 89.3709 106.498 88.6392 106.014L88.8799 105.648C89.6059 106.128 90.3519 106.597 91.0969 107.042L90.8733 107.419ZM153.131 105.127L152.88 104.767C153.59 104.269 154.299 103.747 154.986 103.217L155.253 103.565C154.56 104.1 153.846 104.625 153.131 105.127ZM86.4721 104.509C85.7662 103.994 85.061 103.454 84.376 102.905L84.6489 102.562C85.3287 103.107 86.0285 103.642 86.729 104.153L86.4721 104.509ZM157.302 101.908L157.021 101.572C157.682 101.011 158.341 100.427 158.978 99.8348L159.275 100.157C158.633 100.754 157.969 101.342 157.302 101.908ZM82.3554 101.208C81.698 100.63 81.0448 100.029 80.4142 99.4207L80.717 99.1037C81.3429 99.7072 81.9911 100.304 82.6435 100.878L82.3554 101.208ZM161.167 98.318L160.856 98.0097C161.466 97.3889 162.069 96.7464 162.649 96.1003L162.974 96.3941C162.39 97.0454 161.782 97.6925 161.167 98.318ZM78.5565 97.5469C77.9533 96.91 77.3576 96.2517 76.786 95.5904L77.1163 95.3026C77.6836 95.959 78.2747 96.6122 78.8734 97.2441L78.5565 97.5469ZM164.692 94.3893L164.354 94.1105C164.906 93.437 165.448 92.742 165.968 92.0444L166.318 92.3073C165.795 93.0103 165.248 93.7108 164.692 94.3893ZM75.1063 93.5556C74.5646 92.8683 74.0312 92.1587 73.5209 91.4466L73.8759 91.1901C74.3823 91.8967 74.9116 92.6009 75.4492 93.2832L75.1063 93.5556ZM167.847 90.1527L167.486 89.9061C167.973 89.1849 168.451 88.4427 168.905 87.6997L169.278 87.9296C168.82 88.6782 168.339 89.4261 167.847 90.1527ZM72.0336 89.2679C71.557 88.5343 71.0906 87.7795 70.6472 87.0238L71.0239 86.8008C71.464 87.5507 71.9269 88.2999 72.3998 89.0277L72.0336 89.2679ZM170.606 85.6424L170.223 85.4301C170.643 84.6671 171.051 83.8836 171.436 83.1011L171.828 83.2958C171.44 84.0841 171.029 84.8736 170.606 85.6424ZM69.3647 84.719C68.9568 83.9449 68.5613 83.1506 68.1892 82.3585L68.5847 82.1711C68.954 82.9572 69.3464 83.7455 69.7512 84.5136L69.3647 84.719ZM172.942 80.8947L172.541 80.7185C172.89 79.9192 173.224 79.1007 173.536 78.2859L173.944 78.4433C173.63 79.2646 173.293 80.0893 172.942 80.8947ZM67.123 79.9471C66.7877 79.1391 66.4667 78.3125 66.1687 77.4899L66.5798 77.3398C66.8754 78.1561 67.194 78.9764 67.5266 79.7781L67.123 79.9471ZM174.833 75.9472L174.418 75.8091C174.691 74.9833 174.948 74.1393 175.183 73.3002L175.604 73.419C175.368 74.2645 175.108 75.1152 174.833 75.9472ZM65.3263 74.9848C65.0661 74.1479 64.8216 73.2929 64.5996 72.4433L65.0226 72.3318C65.2429 73.1749 65.4856 74.0235 65.7438 74.854L65.3263 74.9848ZM176.258 70.8577L175.832 70.7582C176.028 69.9118 176.207 69.0474 176.365 68.1895L176.795 68.2688C176.636 69.1336 176.456 70.0045 176.258 70.8577ZM63.9905 69.8709C63.8081 69.0131 63.6431 68.1393 63.5 67.2732L63.9314 67.2011C64.0735 68.0608 64.2373 68.928 64.4183 69.7791L63.9905 69.8709ZM177.212 65.6584L176.778 65.5988C176.896 64.7387 176.995 63.8617 177.073 62.9919L177.509 63.0314C177.43 63.908 177.33 64.7917 177.212 65.6584V65.6584ZM63.1286 64.6557C63.0255 63.7864 62.9408 62.901 62.8768 62.0241L63.3131 61.992C63.3764 62.8624 63.4606 63.7409 63.563 64.6038L63.1286 64.6557ZM177.687 60.3938L177.25 60.374C177.289 59.5038 177.309 58.6212 177.309 57.7508H177.746C177.746 58.6279 177.726 59.5171 177.687 60.3938L177.687 60.3938ZM62.7443 59.3833C62.7294 58.8449 62.7218 58.2955 62.7217 57.7508C62.7217 57.4129 62.7246 57.0755 62.7303 56.7389L63.1677 56.7466C63.1619 57.0807 63.159 57.4154 63.159 57.7508C63.1591 58.2914 63.1667 58.8367 63.1815 59.3713L62.7443 59.3833ZM177.306 57.1382C177.297 56.2674 177.268 55.3849 177.22 54.5149L177.656 54.4905C177.705 55.3671 177.734 56.2563 177.743 57.1334L177.306 57.1382ZM63.2715 54.1248L62.835 54.0973C62.8895 53.2198 62.9649 52.3336 63.0588 51.4631L63.4936 51.5103C63.4004 52.3743 63.3257 53.2538 63.2715 54.1248ZM177.015 51.8993C176.928 51.0335 176.819 50.1576 176.692 49.2955L177.125 49.2314C177.253 50.1 177.362 50.9826 177.45 51.8549L177.015 51.8993ZM63.8341 48.909L63.4019 48.8419C63.5359 47.9731 63.6915 47.0974 63.8646 46.2389L64.2932 46.326C64.1215 47.1779 63.967 48.047 63.8341 48.909ZM176.251 46.7097C176.084 45.853 175.896 44.9907 175.691 44.1466L176.116 44.0429C176.322 44.8933 176.512 45.7623 176.68 46.6254L176.251 46.7097ZM64.87 43.767L64.4458 43.6602C64.6582 42.8096 64.8934 41.952 65.145 41.1109L65.5637 41.2372C65.3142 42.0718 65.0808 42.9229 64.87 43.767ZM175.015 41.6121C174.771 40.7759 174.504 39.9347 174.223 39.1117L174.636 38.9689C174.92 39.7983 175.189 40.646 175.435 41.4886L175.015 41.6121ZM66.3756 38.7355L65.963 38.5899C66.2536 37.7597 66.5674 36.9255 66.8957 36.1106L67.3012 36.2752C66.9754 37.0839 66.664 37.9117 66.3756 38.7355ZM173.316 36.6506C172.997 35.8424 172.656 35.0313 172.301 34.2397L172.7 34.0593C173.057 34.8571 173.402 35.6744 173.723 36.4887L173.316 36.6506ZM68.3385 33.8613L67.9411 33.678C68.3064 32.8792 68.6952 32.0781 69.0967 31.2972L69.4853 31.4985C69.0868 32.2736 68.7011 33.0685 68.3385 33.8613ZM171.176 31.8772C170.784 31.1019 170.37 30.325 169.943 29.5684L170.324 29.352C170.754 30.1145 171.171 30.8973 171.566 31.6787L171.176 31.8772ZM70.739 29.1918L70.3599 28.9727C70.7962 28.2119 71.2563 27.4505 71.7275 26.7096L72.0961 26.9459C71.6285 27.6812 71.1719 28.4369 70.739 29.1918ZM168.606 27.3176C168.144 26.5789 167.66 25.8429 167.168 25.1301L167.527 24.8799C168.023 25.5982 168.511 26.3397 168.977 27.0841L168.606 27.3176ZM73.554 24.7653L73.1966 24.5122C73.7008 23.7942 74.2279 23.0785 74.7637 22.385L75.1092 22.6541C74.5776 23.3425 74.0543 24.0527 73.554 24.7653ZM165.631 23.0103C165.104 22.3171 164.556 21.628 164 20.9622L164.335 20.6801C164.895 21.3511 165.448 22.0453 165.979 22.7438L165.631 23.0103ZM76.7584 20.6171L76.4255 20.3323C76.9913 19.665 77.581 19.0007 78.1782 18.3581L78.4979 18.6576C77.9053 19.2955 77.32 19.9548 76.7584 20.6171ZM162.277 18.9903C161.689 18.3482 161.08 17.7118 160.466 17.0989L160.774 16.7873C161.393 17.405 162.007 18.0462 162.599 18.6931L162.277 18.9903ZM80.3239 16.7804L80.0181 16.4665C80.6435 15.8521 81.2906 15.2447 81.9414 14.6612L82.2327 14.9889C81.5868 15.5679 80.9446 16.1707 80.3239 16.7804V16.7804ZM158.571 15.2917C157.927 14.7053 157.262 14.127 156.595 13.5728L156.874 13.2344C157.546 13.7928 158.216 14.3755 158.865 14.9664L158.571 15.2917ZM84.2204 13.2865L83.9442 12.946C84.6207 12.3928 85.3197 11.8473 86.0221 11.3245L86.2826 11.6772C85.5855 12.1962 84.8917 12.7375 84.2204 13.2865V13.2865ZM154.543 11.9455C153.848 11.4202 153.134 10.9048 152.419 10.4137L152.666 10.0513C153.386 10.5461 154.106 11.0653 154.806 11.5947L154.543 11.9455ZM88.4151 10.1646L88.171 9.80025C88.8949 9.31112 89.6402 8.83217 90.3863 8.37639L90.6135 8.75166C89.8732 9.20391 89.1336 9.67932 88.4151 10.1646V10.1646ZM150.226 8.98078C149.487 8.52145 148.728 8.0737 147.971 7.64976L148.183 7.26613C148.947 7.69329 149.712 8.14458 150.457 8.60723L150.226 8.98078ZM92.8734 7.44144L92.6635 7.0561C93.4294 6.63526 94.2147 6.22697 94.9976 5.84238L95.1898 6.23694C94.4129 6.61853 93.6335 7.02372 92.8734 7.44144ZM145.656 6.42393C144.878 6.03461 144.08 5.65849 143.286 5.30607L143.463 4.90442C144.263 5.25953 145.067 5.63855 145.851 6.03087L145.656 6.42393ZM97.5579 5.14063L97.3841 4.73769C98.1845 4.38934 99.0032 4.05524 99.8175 3.74463L99.9728 4.15528C99.1647 4.46343 98.3522 4.79495 97.5579 5.14063H97.5579ZM140.867 4.29863C140.058 3.98331 139.229 3.68244 138.404 3.40453L138.543 2.98809C139.374 3.26826 140.209 3.57137 141.025 3.88927L140.867 4.29863ZM102.436 3.28048L102.3 2.86318C103.131 2.58956 103.979 2.33191 104.82 2.09764L104.937 2.52073C104.103 2.75329 103.261 3.0089 102.436 3.28048ZM135.908 2.62752C135.074 2.38874 134.223 2.16636 133.379 1.96662L133.48 1.53924C134.33 1.74049 135.187 1.96458 136.028 2.20507L135.908 2.62752ZM107.471 1.87751L107.373 1.44939C108.225 1.25393 109.093 1.07584 109.953 0.920155L110.031 1.35225C109.178 1.50686 108.316 1.68356 107.471 1.87751ZM130.823 1.42366C129.971 1.26314 129.104 1.12033 128.244 0.999175L128.305 0.564298C129.171 0.68642 130.045 0.830305 130.904 0.991992L130.823 1.42366ZM112.612 0.94578L112.554 0.51047C113.42 0.394459 114.301 0.29689 115.171 0.220764L115.209 0.658218C114.345 0.733916 113.472 0.830631 112.612 0.945784V0.94578ZM125.649 0.693815C124.788 0.612329 123.911 0.549497 123.043 0.507361L123.064 0.0686303C123.938 0.111197 124.822 0.174455 125.69 0.256596L125.649 0.693815ZM117.817 0.489777L117.799 0.0510363C118.603 0.0173696 119.422 0.000215193 120.234 0L120.432 0.000325008L120.431 0.439495L120.234 0.43917C119.428 0.439387 118.615 0.456434 117.817 0.489781V0.489777Z" fill="#3F3D56"/>
<path d="M176.254 105.68C175.735 105.68 175.228 105.526 174.796 105.236C174.365 104.947 174.028 104.535 173.83 104.054C173.631 103.572 173.579 103.042 173.68 102.531C173.782 102.02 174.031 101.55 174.398 101.182C174.765 100.813 175.233 100.562 175.742 100.461C176.251 100.359 176.779 100.411 177.258 100.611C177.738 100.81 178.148 101.148 178.436 101.581C178.724 102.015 178.878 102.524 178.878 103.045C178.877 103.744 178.601 104.414 178.109 104.908C177.617 105.402 176.95 105.679 176.254 105.68ZM176.254 100.849C175.822 100.849 175.399 100.978 175.039 101.219C174.679 101.461 174.399 101.804 174.234 102.205C174.068 102.606 174.025 103.048 174.109 103.474C174.194 103.9 174.402 104.291 174.708 104.598C175.014 104.905 175.403 105.114 175.827 105.199C176.252 105.284 176.691 105.24 177.091 105.074C177.49 104.908 177.832 104.626 178.072 104.265C178.313 103.904 178.441 103.479 178.441 103.045C178.44 102.463 178.21 101.905 177.8 101.493C177.39 101.082 176.834 100.85 176.254 100.849Z" fill="#2F2E41"/>
<path d="M106.453 38.0787V52.501C106.453 52.6343 106.4 52.762 106.306 52.8562C106.212 52.9504 106.085 53.0035 105.952 53.0039H105.596V128.135C105.596 130.214 104.773 132.208 103.309 133.678C101.845 135.148 99.8595 135.974 97.7891 135.974H51.0379C50.0129 135.974 48.9978 135.771 48.0509 135.377C47.1039 134.983 46.2434 134.406 45.5187 133.678C44.7939 132.95 44.2191 132.086 43.827 131.134C43.4349 130.183 43.2331 129.164 43.2333 128.135V55.6389H42.9753C42.8816 55.639 42.7918 55.6019 42.7254 55.5356C42.659 55.4694 42.6214 55.3794 42.621 55.2854V47.0773C42.621 47.0306 42.6302 46.9843 42.648 46.9411C42.6658 46.898 42.6918 46.8588 42.7247 46.8257C42.7576 46.7927 42.7967 46.7665 42.8397 46.7486C42.8827 46.7307 42.9287 46.7216 42.9753 46.7216H43.2333V43.6298H42.9731C42.8748 43.6294 42.7807 43.5899 42.7114 43.5199C42.6421 43.4499 42.6033 43.3552 42.6035 43.2565V35.1604C42.6038 35.0621 42.6428 34.9678 42.712 34.8983C42.7813 34.8288 42.8751 34.7896 42.9731 34.7893H43.2333V30.5689H42.9687C42.9256 30.569 42.8829 30.5605 42.8431 30.5439C42.8033 30.5274 42.7671 30.5032 42.7366 30.4726C42.7061 30.442 42.682 30.4056 42.6655 30.3656C42.6491 30.3257 42.6406 30.2828 42.6407 30.2395V25.8215C42.6405 25.7339 42.6749 25.6497 42.7364 25.5876C42.7979 25.5254 42.8814 25.4903 42.9687 25.4899H43.2333V16.544C43.2334 14.4655 44.0557 12.4722 45.5193 11.0025C46.983 9.53281 48.9681 8.70711 51.0379 8.70703H97.7891C99.8592 8.70702 101.845 9.53263 103.309 11.0023C104.773 12.4719 105.595 14.4653 105.596 16.544V37.5759H105.952C106.085 37.5762 106.212 37.6293 106.306 37.7235C106.4 37.8177 106.453 37.9454 106.453 38.0787Z" fill="#3F3D56"/>
<path d="M76.6663 12.7266H69.0695C68.7625 12.7266 68.5137 12.9765 68.5137 13.2847V13.9441C68.5137 14.2523 68.7625 14.5022 69.0695 14.5022H76.6663C76.9733 14.5022 77.2222 14.2523 77.2222 13.9441V13.2847C77.2222 12.9765 76.9733 12.7266 76.6663 12.7266Z" fill="#E6E8EC"/>
<path d="M79.5411 14.6217C80.095 14.6217 80.5441 14.1708 80.5441 13.6146C80.5441 13.0583 80.095 12.6074 79.5411 12.6074C78.9871 12.6074 78.5381 13.0583 78.5381 13.6146C78.5381 14.1708 78.9871 14.6217 79.5411 14.6217Z" fill="#E6E8EC"/>
<path d="M101.858 18.0927V128.783C101.857 130.102 101.335 131.366 100.406 132.299C99.4774 133.231 98.2179 133.755 96.9047 133.755H52.1523C51.5017 133.756 50.8573 133.628 50.256 133.379C49.6547 133.129 49.1083 132.763 48.6482 132.301C48.1881 131.839 47.8232 131.291 47.5746 130.687C47.3259 130.084 47.1984 129.437 47.1992 128.783V18.0927C47.1992 17.4396 47.3273 16.7928 47.5762 16.1894C47.8251 15.586 48.1899 15.0377 48.6499 14.5758C49.1098 14.114 49.6558 13.7476 50.2568 13.4977C50.8577 13.2477 51.5018 13.1191 52.1523 13.1191H58.8504V13.9821C58.8504 15.0682 59.2801 16.1099 60.0449 16.8779C60.8097 17.6459 61.8471 18.0774 62.9287 18.0774H85.6887C86.7703 18.0774 87.8077 17.6459 88.5725 16.8779C89.3374 16.1099 89.767 15.0682 89.7671 13.9821V13.1191H96.9047C97.5552 13.1189 98.1994 13.2474 98.8004 13.4973C99.4014 13.7472 99.9475 14.1135 100.407 14.5754C100.867 15.0373 101.232 15.5857 101.481 16.1892C101.73 16.7927 101.858 17.4395 101.858 18.0927Z" fill="#23F6F0"/>
<path opacity="0.2" d="M100.117 49.4062H49.3838V74.2193H100.117V49.4062Z" fill="black"/>
<path d="M179.716 21.0801H128.982V45.8932H179.716V21.0801Z" fill="#F2F2F2"/>
<path d="M100.117 87.0176H49.3838V111.831H100.117V87.0176Z" fill="#3F3D56"/>
<path d="M94.8687 31.0236C97.2841 31.0236 99.2422 29.0574 99.2422 26.6319C99.2422 24.2065 97.2841 22.2402 94.8687 22.2402C92.4532 22.2402 90.4951 24.2065 90.4951 26.6319C90.4951 29.0574 92.4532 31.0236 94.8687 31.0236Z" fill="white"/>
<path d="M96.8366 26.4894H95.0089V24.6543H94.7279V26.4894H92.9004V26.7717H94.7279V28.6068H95.0089V26.7717H96.8366V26.4894Z" fill="#3F3D56"/>
<path d="M174.03 17.7871H123.297V42.6002H174.03V17.7871Z" fill="#3F3D56"/>
<path d="M145.945 34.4454C147.273 39.3751 151.822 42.4282 151.822 42.4282C151.822 42.4282 154.218 37.4886 152.89 32.5589C151.562 27.6293 147.013 24.5762 147.013 24.5762C147.013 24.5762 144.617 29.5157 145.945 34.4454Z" fill="white"/>
<path d="M147.896 33.3872C151.54 36.9494 151.985 42.4254 151.985 42.4254C151.985 42.4254 146.522 42.1258 142.877 38.5636C139.233 35.0014 138.788 29.5254 138.788 29.5254C138.788 29.5254 144.251 29.8249 147.896 33.3872Z" fill="#23F6F0"/>
<path d="M69.8102 104.055C71.1383 108.984 75.6872 112.038 75.6872 112.038C75.6872 112.038 78.0829 107.098 76.7549 102.168C75.4268 97.2387 70.8779 94.1855 70.8779 94.1855C70.8779 94.1855 68.4822 99.1251 69.8102 104.055Z" fill="white"/>
<path d="M71.7619 102.995C75.4061 106.557 75.8512 112.033 75.8512 112.033C75.8512 112.033 70.3879 111.733 66.7436 108.171C63.0994 104.609 62.6543 99.1328 62.6543 99.1328C62.6543 99.1328 68.1176 99.4324 71.7619 102.995Z" fill="#23F6F0"/>
<path d="M81.8916 104.055C80.5635 108.984 76.0146 112.038 76.0146 112.038C76.0146 112.038 73.6189 107.098 74.947 102.168C76.275 97.2387 80.8239 94.1855 80.8239 94.1855C80.8239 94.1855 83.2197 99.1251 81.8916 104.055Z" fill="white"/>
<path d="M79.9399 102.995C76.2957 106.557 75.8506 112.033 75.8506 112.033C75.8506 112.033 81.3139 111.733 84.9582 108.171C88.6024 104.609 89.0475 99.1328 89.0475 99.1328C89.0475 99.1328 83.5842 99.4324 79.9399 102.995Z" fill="#23F6F0"/>
<path d="M134.668 73.9032H130.351V69.5684H134.668V73.9032ZM130.683 73.5698H134.335V69.9018H130.683V73.5698Z" fill="#3F3D56"/>
<path d="M21.3146 100.711L18.3701 97.5407L21.527 94.584L24.4715 97.7539L21.3146 100.711ZM18.8394 97.5571L21.331 100.239L24.0022 97.7375L21.5106 95.0553L18.8394 97.5571Z" fill="#2F2E41"/>
<path d="M23.6473 32.5063C24.8646 32.5063 25.8513 31.5155 25.8513 30.2932C25.8513 29.0709 24.8646 28.0801 23.6473 28.0801C22.4301 28.0801 21.4434 29.0709 21.4434 30.2932C21.4434 31.5155 22.4301 32.5063 23.6473 32.5063Z" fill="#3F3D56"/>
<path d="M23.6473 36.6873C22.388 36.6873 21.157 36.3123 20.11 35.6098C19.0629 34.9073 18.2468 33.9087 17.7649 32.7405C17.283 31.5722 17.1569 30.2867 17.4026 29.0465C17.6483 27.8063 18.2547 26.6671 19.1451 25.773C20.0356 24.8789 21.1701 24.2699 22.4052 24.0232C23.6402 23.7765 24.9204 23.9032 26.0839 24.3871C27.2473 24.871 28.2417 25.6904 28.9413 26.7418C29.6409 27.7932 30.0143 29.0293 30.0143 30.2938C30.0124 31.9889 29.341 33.614 28.1474 34.8126C26.9537 36.0112 25.3354 36.6854 23.6473 36.6873ZM23.6473 24.3922C22.4849 24.3922 21.3486 24.7383 20.3821 25.3868C19.4156 26.0353 18.6623 26.957 18.2174 28.0354C17.7726 29.1138 17.6562 30.3004 17.883 31.4452C18.1098 32.59 18.6695 33.6416 19.4915 34.4669C20.3134 35.2923 21.3606 35.8544 22.5007 36.0821C23.6408 36.3098 24.8225 36.1929 25.8964 35.7462C26.9704 35.2996 27.8883 34.5431 28.5341 33.5726C29.1799 32.6021 29.5246 31.4611 29.5246 30.2938C29.5228 28.7292 28.903 27.2291 27.8012 26.1227C26.6994 25.0163 25.2055 24.394 23.6473 24.3922Z" fill="#2F2E41"/>
<path d="M111.051 45.4531H60.3174V70.2662H111.051V45.4531Z" fill="#3F3D56"/>
<path d="M85.9354 53.9609H85.498V70.3005H85.9354V53.9609Z" fill="white"/>
<path d="M85.7162 56.4924C86.987 56.4924 88.0173 55.4579 88.0173 54.1818C88.0173 52.9056 86.987 51.8711 85.7162 51.8711C84.4453 51.8711 83.415 52.9056 83.415 54.1818C83.415 55.4579 84.4453 56.4924 85.7162 56.4924Z" fill="#23F6F0"/>
<path d="M85.7161 64.0325C85.7161 64.0325 85.3874 56.9329 78.6484 57.7582L85.7161 64.0325Z" fill="white"/>
<path d="M156.143 112.954L128.001 121.795L92.9936 99.6127L92.992 99.6111L92.8772 99.5401L92.8584 99.5275L92.5801 99.3522L89.2471 97.2463C89.2534 97.1894 89.2612 97.1342 89.2722 97.0805C89.3233 96.8202 89.4415 96.578 89.615 96.378C89.6754 96.3062 89.7416 96.2397 89.8131 96.179H89.8146C89.8461 96.1522 89.8791 96.1254 89.9137 96.1001C89.9483 96.0733 89.9844 96.048 90.0221 96.0243C90.6667 95.5902 91.6383 95.4055 92.6508 95.3502C94.8373 95.246 97.0128 95.7196 98.96 96.7237C102.895 98.7223 111.353 102.655 112.672 100.246C114.402 97.0884 94.7497 61.8835 94.7497 61.8835C93.1319 57.7078 94.3158 56.3438 95.0578 55.9144C95.0799 55.9018 95.1018 55.8892 95.1223 55.8781C95.2009 55.8375 95.2823 55.8027 95.366 55.7739C95.4097 55.758 95.4543 55.7448 95.4996 55.7345C95.5115 55.7311 95.5236 55.7285 95.5358 55.7266L98.1424 59.206L98.1818 59.2581L98.3217 59.446L98.3641 59.5028L114.166 80.591C138.378 67.4878 146.71 102.535 146.71 102.535L156.143 112.954Z" fill="#FBBEBE"/>
<path d="M98.3639 59.5027C98.3065 59.6216 98.2163 59.7213 98.1039 59.7899C97.9915 59.8585 97.8618 59.8931 97.7303 59.8895C97.6432 59.8892 97.5566 59.8775 97.4725 59.8548C96.8876 59.6969 96.21 59.0528 95.7038 58.1735C95.2101 57.3146 95.0073 56.4511 95.1221 55.878C95.2007 55.8374 95.2821 55.8026 95.3657 55.7738C95.4094 55.7579 95.4541 55.7447 95.4994 55.7344C95.2966 56.1338 95.4176 57.0415 95.9773 58.0156C96.4348 58.8128 97.0543 59.4159 97.5527 59.5485C97.6135 59.574 97.6794 59.5851 97.7452 59.5808C97.811 59.5765 97.8749 59.5571 97.932 59.5239C97.989 59.4907 98.0377 59.4448 98.0742 59.3896C98.1107 59.3345 98.1339 59.2716 98.1422 59.2059L98.1815 59.258L98.3214 59.4459L98.3639 59.5027Z" fill="#3F3D56"/>
<path d="M92.8775 99.5396L92.8586 99.527L92.5803 99.3517C92.5819 98.9018 92.2423 98.1645 91.4924 97.4241C90.8588 96.8037 90.123 96.3964 89.6152 96.3775C89.6756 96.3057 89.7419 96.2392 89.8133 96.1785H89.8149C89.8463 96.1517 89.8793 96.1249 89.9139 96.0996C90.5985 96.3024 91.2184 96.6811 91.7125 97.1984C92.5363 98.0114 92.9891 98.9381 92.8775 99.5396Z" fill="#3F3D56"/>
<path d="M31.2847 55.5542C32.3438 55.5542 33.2023 54.6921 33.2023 53.6287C33.2023 52.5652 32.3438 51.7031 31.2847 51.7031C30.2257 51.7031 29.3672 52.5652 29.3672 53.6287C29.3672 54.6921 30.2257 55.5542 31.2847 55.5542Z" fill="#23F6F0"/>
<path d="M27.5566 70.1024C28.1449 70.1024 28.6219 69.6234 28.6219 69.0326C28.6219 68.4418 28.1449 67.9629 27.5566 67.9629C26.9682 67.9629 26.4912 68.4418 26.4912 69.0326C26.4912 69.6234 26.9682 70.1024 27.5566 70.1024Z" fill="#23F6F0"/>
<path d="M115.267 21.2469C115.855 21.2469 116.332 20.768 116.332 20.1772C116.332 19.5864 115.855 19.1074 115.267 19.1074C114.678 19.1074 114.201 19.5864 114.201 20.1772C114.201 20.768 114.678 21.2469 115.267 21.2469Z" fill="#3F3D56"/>
<path d="M20.0986 69.5672C20.687 69.5672 21.1639 69.0883 21.1639 68.4975C21.1639 67.9067 20.687 67.4277 20.0986 67.4277C19.5102 67.4277 19.0332 67.9067 19.0332 68.4975C19.0332 69.0883 19.5102 69.5672 20.0986 69.5672Z" fill="#3F3D56"/>
<path d="M154.453 69.5771C155.041 69.5771 155.518 69.0981 155.518 68.5073C155.518 67.9165 155.041 67.4375 154.453 67.4375C153.865 67.4375 153.388 67.9165 153.388 68.5073C153.388 69.0981 153.865 69.5771 154.453 69.5771Z" fill="#3F3D56"/>
</g>
<defs>
<clipPath id="clip0_123_326">
<rect width="234" height="136" fill="white"/>
</clipPath>
</defs>
</svg>
